STARTFONT 2.1
COMMENT This font is a free software.
COMMENT Unlimited permission is granted to use, copy, and distribute it,
COMMENT with or without modification, either commercially and noncommercially.
COMMENT THIS FONT IS PROVIDED "AS IS" WITHOUT WARRANTY.
FONT -mplus-hlv-medium-R-normal--12-120-75-75-P-60-iso8859-1
SIZE 12 75 75
FONTBOUNDINGBOX 10 14 -1 -3
STARTPROPERTIES 20
FONTNAME_REGISTRY ""
FOUNDRY "mplus"
FAMILY_NAME "hlv"
WEIGHT_NAME "medium"
SLANT "R"
SETWIDTH_NAME "normal"
ADD_STYLE_NAME ""
PIXEL_SIZE 12
POINT_SIZE 120
RESOLUTION_X 75
RESOLUTION_Y 75
SPACING "P"
AVERAGE_WIDTH 60
CHARSET_REGISTRY "iso8859"
CHARSET_ENCODING "1"
COPYRIGHT "Copyright (C) 2002-2004 COZ"
DEFAULT_CHAR 32
FONT_DESCENT 4
FONT_ASCENT 11
_XMBDFED_INFO "Edited with xmbdfed 4.5."
ENDPROPERTIES
CHARS 192
STARTCHAR 0x0020
ENCODING 32
SWIDTH 480 0
DWIDTH 6 0
BBX 0 0 0 0
BITMAP
ENDCHAR
STARTCHAR 0x0021
ENCODING 33
SWIDTH 320 0
DWIDTH 4 0
BBX 1 9 1 0
BITMAP
80
80
80
80
80
80
80
00
80
ENDCHAR
STARTCHAR 0x0022
ENCODING 34
SWIDTH 480 0
DWIDTH 6 0
BBX 3 4 1 6
BITMAP
A0
A0
A0
A0
ENDCHAR
STARTCHAR 0x0023
ENCODING 35
SWIDTH 560 0
DWIDTH 7 0
BBX 6 9 0 0
BITMAP
48
48
FC
48
48
48
FC
48
48
ENDCHAR
STARTCHAR 0x0024
ENCODING 36
SWIDTH 560 0
DWIDTH 7 0
BBX 6 10 0 -1
BITMAP
10
7C
90
90
78
24
24
24
F8
20
ENDCHAR
STARTCHAR 0x0025
ENCODING 37
SWIDTH 640 0
DWIDTH 8 0
BBX 7 9 0 0
BITMAP
60
92
94
68
10
2C
52
92
0C
ENDCHAR
STARTCHAR 0x0026
ENCODING 38
SWIDTH 560 0
DWIDTH 7 0
BBX 6 9 0 0
BITMAP
70
88
88
50
64
94
88
88
74
ENDCHAR
STARTCHAR 0x0027
ENCODING 39
SWIDTH 320 0
DWIDTH 4 0
BBX 1 4 1 6
BITMAP
80
80
80
80
ENDCHAR
STARTCHAR 0x0028
ENCODING 40
SWIDTH 480 0
DWIDTH 6 0
BBX 3 11 1 -1
BITMAP
20
40
40
80
80
80
80
80
40
40
20
ENDCHAR
STARTCHAR 0x0029
ENCODING 41
SWIDTH 480 0
DWIDTH 6 0
BBX 3 11 1 -1
BITMAP
80
40
40
20
20
20
20
20
40
40
80
ENDCHAR
STARTCHAR 0x002A
ENCODING 42
SWIDTH 480 0
DWIDTH 6 0
BBX 5 7 0 2
BITMAP
20
A8
70
20
70
A8
20
ENDCHAR
STARTCHAR 0x002B
ENCODING 43
SWIDTH 640 0
DWIDTH 8 0
BBX 7 7 0 1
BITMAP
10
10
10
FE
10
10
10
ENDCHAR
STARTCHAR 0x002C
ENCODING 44
SWIDTH 480 0
DWIDTH 6 0
BBX 2 2 1 -1
BITMAP
40
80
ENDCHAR
STARTCHAR 0x002D
ENCODING 45
SWIDTH 560 0
DWIDTH 7 0
BBX 6 1 0 4
BITMAP
FC
ENDCHAR
STARTCHAR 0x002E
ENCODING 46
SWIDTH 480 0
DWIDTH 6 0
BBX 1 1 2 0
BITMAP
80
ENDCHAR
STARTCHAR 0x002F
ENCODING 47
SWIDTH 640 0
DWIDTH 8 0
BBX 5 10 1 -1
BITMAP
08
08
10
10
20
20
40
40
80
80
ENDCHAR
STARTCHAR 0x0030
ENCODING 48
SWIDTH 560 0
DWIDTH 7 0
BBX 5 9 1 0
BITMAP
70
88
88
88
88
88
88
88
70
ENDCHAR
STARTCHAR 0x0031
ENCODING 49
SWIDTH 560 0
DWIDTH 7 0
BBX 3 9 1 0
BITMAP
20
60
A0
20
20
20
20
20
20
ENDCHAR
STARTCHAR 0x0032
ENCODING 50
SWIDTH 560 0
DWIDTH 7 0
BBX 5 9 1 0
BITMAP
70
88
88
08
10
20
40
80
F8
ENDCHAR
STARTCHAR 0x0033
ENCODING 51
SWIDTH 560 0
DWIDTH 7 0
BBX 5 9 1 0
BITMAP
F8
08
10
20
70
08
08
88
70
ENDCHAR
STARTCHAR 0x0034
ENCODING 52
SWIDTH 560 0
DWIDTH 7 0
BBX 6 9 0 0
BITMAP
18
18
28
28
48
48
FC
08
08
ENDCHAR
STARTCHAR 0x0035
ENCODING 53
SWIDTH 560 0
DWIDTH 7 0
BBX 5 9 1 0
BITMAP
F8
80
80
F0
08
08
88
88
70
ENDCHAR
STARTCHAR 0x0036
ENCODING 54
SWIDTH 560 0
DWIDTH 7 0
BBX 5 9 1 0
BITMAP
30
40
80
F0
88
88
88
88
70
ENDCHAR
STARTCHAR 0x0037
ENCODING 55
SWIDTH 560 0
DWIDTH 7 0
BBX 5 9 1 0
BITMAP
F8
08
08
10
10
20
20
40
40
ENDCHAR
STARTCHAR 0x0038
ENCODING 56
SWIDTH 560 0
DWIDTH 7 0
BBX 5 9 1 0
BITMAP
70
88
88
88
70
88
88
88
70
ENDCHAR
STARTCHAR 0x0039
ENCODING 57
SWIDTH 560 0
DWIDTH 7 0
BBX 5 9 1 0
BITMAP
70
88
88
88
88
78
08
10
60
ENDCHAR
STARTCHAR 0x003A
ENCODING 58
SWIDTH 480 0
DWIDTH 6 0
BBX 1 5 2 1
BITMAP
80
00
00
00
80
ENDCHAR
STARTCHAR 0x003B
ENCODING 59
SWIDTH 480 0
DWIDTH 6 0
BBX 2 6 1 0
BITMAP
40
00
00
00
40
80
ENDCHAR
STARTCHAR 0x003C
ENCODING 60
SWIDTH 640 0
DWIDTH 8 0
BBX 5 9 1 0
BITMAP
08
10
20
40
80
40
20
10
08
ENDCHAR
STARTCHAR 0x003D
ENCODING 61
SWIDTH 560 0
DWIDTH 7 0
BBX 6 3 0 3
BITMAP
FC
00
FC
ENDCHAR
STARTCHAR 0x003E
ENCODING 62
SWIDTH 640 0
DWIDTH 8 0
BBX 5 9 1 0
BITMAP
80
40
20
10
08
10
20
40
80
ENDCHAR
STARTCHAR 0x003F
ENCODING 63
SWIDTH 560 0
DWIDTH 7 0
BBX 6 9 0 0
BITMAP
78
84
84
08
10
20
20
00
20
ENDCHAR
STARTCHAR 0x0040
ENCODING 64
SWIDTH 640 0
DWIDTH 8 0
BBX 7 9 0 0
BITMAP
3C
42
9E
A2
A2
A2
9C
40
3C
ENDCHAR
STARTCHAR 0x0041
ENCODING 65
SWIDTH 640 0
DWIDTH 8 0
BBX 7 9 0 0
BITMAP
10
10
28
28
44
44
7C
82
82
ENDCHAR
STARTCHAR 0x0042
ENCODING 66
SWIDTH 560 0
DWIDTH 7 0
BBX 6 9 0 0
BITMAP
F8
84
84
84
F8
84
84
84
F8
ENDCHAR
STARTCHAR 0x0043
ENCODING 67
SWIDTH 560 0
DWIDTH 7 0
BBX 6 9 0 0
BITMAP
38
44
80
80
80
80
80
44
38
ENDCHAR
STARTCHAR 0x0044
ENCODING 68
SWIDTH 640 0
DWIDTH 8 0
BBX 7 9 0 0
BITMAP
F8
84
82
82
82
82
82
84
F8
ENDCHAR
STARTCHAR 0x0045
ENCODING 69
SWIDTH 560 0
DWIDTH 7 0
BBX 6 9 0 0
BITMAP
FC
80
80
80
F8
80
80
80
FC
ENDCHAR
STARTCHAR 0x0046
ENCODING 70
SWIDTH 560 0
DWIDTH 7 0
BBX 6 9 0 0
BITMAP
FC
80
80
80
F8
80
80
80
80
ENDCHAR
STARTCHAR 0x0047
ENCODING 71
SWIDTH 640 0
DWIDTH 8 0
BBX 7 9 0 0
BITMAP
3C
42
80
80
8E
82
82
46
3A
ENDCHAR
STARTCHAR 0x0048
ENCODING 72
SWIDTH 640 0
DWIDTH 8 0
BBX 7 9 0 0
BITMAP
82
82
82
82
FE
82
82
82
82
ENDCHAR
STARTCHAR 0x0049
ENCODING 73
SWIDTH 320 0
DWIDTH 4 0
BBX 1 9 1 0
BITMAP
80
80
80
80
80
80
80
80
80
ENDCHAR
STARTCHAR 0x004A
ENCODING 74
SWIDTH 560 0
DWIDTH 7 0
BBX 6 9 0 0
BITMAP
04
04
04
04
04
04
84
88
70
ENDCHAR
STARTCHAR 0x004B
ENCODING 75
SWIDTH 560 0
DWIDTH 7 0
BBX 6 9 0 0
BITMAP
84
88
90
A0
C0
A0
90
88
84
ENDCHAR
STARTCHAR 0x004C
ENCODING 76
SWIDTH 560 0
DWIDTH 7 0
BBX 6 9 0 0
BITMAP
80
80
80
80
80
80
80
80
FC
ENDCHAR
STARTCHAR 0x004D
ENCODING 77
SWIDTH 800 0
DWIDTH 10 0
BBX 9 9 0 0
BITMAP
8080
C180
A280
9480
8880
8080
8080
8080
8080
ENDCHAR
STARTCHAR 0x004E
ENCODING 78
SWIDTH 640 0
DWIDTH 8 0
BBX 7 9 0 0
BITMAP
82
C2
A2
92
8A
86
82
82
82
ENDCHAR
STARTCHAR 0x004F
ENCODING 79
SWIDTH 640 0
DWIDTH 8 0
BBX 7 9 0 0
BITMAP
38
44
82
82
82
82
82
44
38
ENDCHAR
STARTCHAR 0x0050
ENCODING 80
SWIDTH 560 0
DWIDTH 7 0
BBX 6 9 0 0
BITMAP
F8
84
84
84
F8
80
80
80
80
ENDCHAR
STARTCHAR 0x0051
ENCODING 81
SWIDTH 640 0
DWIDTH 8 0
BBX 7 11 0 -2
BITMAP
38
44
82
82
82
82
82
44
38
08
06
ENDCHAR
STARTCHAR 0x0052
ENCODING 82
SWIDTH 560 0
DWIDTH 7 0
BBX 6 9 0 0
BITMAP
F8
84
84
84
F8
A0
90
88
84
ENDCHAR
STARTCHAR 0x0053
ENCODING 83
SWIDTH 560 0
DWIDTH 7 0
BBX 6 9 0 0
BITMAP
78
84
80
80
78
04
04
84
78
ENDCHAR
STARTCHAR 0x0054
ENCODING 84
SWIDTH 640 0
DWIDTH 8 0
BBX 7 9 0 0
BITMAP
FE
10
10
10
10
10
10
10
10
ENDCHAR
STARTCHAR 0x0055
ENCODING 85
SWIDTH 640 0
DWIDTH 8 0
BBX 7 9 0 0
BITMAP
82
82
82
82
82
82
82
44
38
ENDCHAR
STARTCHAR 0x0056
ENCODING 86
SWIDTH 640 0
DWIDTH 8 0
BBX 7 9 0 0
BITMAP
82
82
44
44
44
28
28
10
10
ENDCHAR
STARTCHAR 0x0057
ENCODING 87
SWIDTH 800 0
DWIDTH 10 0
BBX 9 9 0 0
BITMAP
8880
8880
8880
4900
5500
5500
2200
2200
2200
ENDCHAR
STARTCHAR 0x0058
ENCODING 88
SWIDTH 560 0
DWIDTH 7 0
BBX 6 9 0 0
BITMAP
84
84
48
48
30
48
48
84
84
ENDCHAR
STARTCHAR 0x0059
ENCODING 89
SWIDTH 640 0
DWIDTH 8 0
BBX 7 9 0 0
BITMAP
82
82
44
44
28
10
10
10
10
ENDCHAR
STARTCHAR 0x005A
ENCODING 90
SWIDTH 560 0
DWIDTH 7 0
BBX 6 9 0 0
BITMAP
FC
04
08
10
20
40
80
80
FC
ENDCHAR
STARTCHAR 0x005B
ENCODING 91
SWIDTH 480 0
DWIDTH 6 0
BBX 3 11 1 -1
BITMAP
E0
80
80
80
80
80
80
80
80
80
E0
ENDCHAR
STARTCHAR 0x005C
ENCODING 92
SWIDTH 640 0
DWIDTH 8 0
BBX 5 10 1 -1
BITMAP
80
80
40
40
20
20
10
10
08
08
ENDCHAR
STARTCHAR 0x005D
ENCODING 93
SWIDTH 480 0
DWIDTH 6 0
BBX 3 11 1 -1
BITMAP
E0
20
20
20
20
20
20
20
20
20
E0
ENDCHAR
STARTCHAR 0x005E
ENCODING 94
SWIDTH 480 0
DWIDTH 6 0
BBX 5 3 0 7
BITMAP
20
50
88
ENDCHAR
STARTCHAR 0x005F
ENCODING 95
SWIDTH 560 0
DWIDTH 7 0
BBX 6 1 0 -1
BITMAP
FC
ENDCHAR
STARTCHAR 0x0060
ENCODING 96
SWIDTH 400 0
DWIDTH 5 0
BBX 2 4 1 6
BITMAP
80
80
40
40
ENDCHAR
STARTCHAR 0x0061
ENCODING 97
SWIDTH 480 0
DWIDTH 6 0
BBX 5 6 0 0
BITMAP
70
08
78
88
88
78
ENDCHAR
STARTCHAR 0x0062
ENCODING 98
SWIDTH 480 0
DWIDTH 6 0
BBX 5 9 0 0
BITMAP
80
80
80
F0
88
88
88
88
F0
ENDCHAR
STARTCHAR 0x0063
ENCODING 99
SWIDTH 480 0
DWIDTH 6 0
BBX 5 6 0 0
BITMAP
70
88
80
80
88
70
ENDCHAR
STARTCHAR 0x0064
ENCODING 100
SWIDTH 480 0
DWIDTH 6 0
BBX 5 9 0 0
BITMAP
08
08
08
78
88
88
88
88
78
ENDCHAR
STARTCHAR 0x0065
ENCODING 101
SWIDTH 480 0
DWIDTH 6 0
BBX 5 6 0 0
BITMAP
70
88
F8
80
88
70
ENDCHAR
STARTCHAR 0x0066
ENCODING 102
SWIDTH 480 0
DWIDTH 6 0
BBX 5 9 0 0
BITMAP
18
20
20
20
F8
20
20
20
20
ENDCHAR
STARTCHAR 0x0067
ENCODING 103
SWIDTH 480 0
DWIDTH 6 0
BBX 5 9 0 -3
BITMAP
78
88
88
88
88
78
08
88
70
ENDCHAR
STARTCHAR 0x0068
ENCODING 104
SWIDTH 480 0
DWIDTH 6 0
BBX 5 9 0 0
BITMAP
80
80
80
B0
C8
88
88
88
88
ENDCHAR
STARTCHAR 0x0069
ENCODING 105
SWIDTH 320 0
DWIDTH 4 0
BBX 1 10 1 0
BITMAP
80
00
00
00
80
80
80
80
80
80
ENDCHAR
STARTCHAR 0x006A
ENCODING 106
SWIDTH 400 0
DWIDTH 5 0
BBX 4 13 -1 -3
BITMAP
10
00
00
00
10
10
10
10
10
10
10
20
C0
ENDCHAR
STARTCHAR 0x006B
ENCODING 107
SWIDTH 480 0
DWIDTH 6 0
BBX 5 9 0 0
BITMAP
80
80
80
90
A0
C0
A0
90
88
ENDCHAR
STARTCHAR 0x006C
ENCODING 108
SWIDTH 320 0
DWIDTH 4 0
BBX 1 9 1 0
BITMAP
80
80
80
80
80
80
80
80
80
ENDCHAR
STARTCHAR 0x006D
ENCODING 109
SWIDTH 640 0
DWIDTH 8 0
BBX 7 6 0 0
BITMAP
FC
92
92
92
92
92
ENDCHAR
STARTCHAR 0x006E
ENCODING 110
SWIDTH 480 0
DWIDTH 6 0
BBX 5 6 0 0
BITMAP
B0
C8
88
88
88
88
ENDCHAR
STARTCHAR 0x006F
ENCODING 111
SWIDTH 480 0
DWIDTH 6 0
BBX 5 6 0 0
BITMAP
70
88
88
88
88
70
ENDCHAR
STARTCHAR 0x0070
ENCODING 112
SWIDTH 480 0
DWIDTH 6 0
BBX 5 9 0 -3
BITMAP
F0
88
88
88
88
F0
80
80
80
ENDCHAR
STARTCHAR 0x0071
ENCODING 113
SWIDTH 480 0
DWIDTH 6 0
BBX 5 9 0 -3
BITMAP
78
88
88
88
88
78
08
08
08
ENDCHAR
STARTCHAR 0x0072
ENCODING 114
SWIDTH 400 0
DWIDTH 5 0
BBX 4 6 0 0
BITMAP
B0
C0
80
80
80
80
ENDCHAR
STARTCHAR 0x0073
ENCODING 115
SWIDTH 480 0
DWIDTH 6 0
BBX 5 6 0 0
BITMAP
70
88
70
08
88
70
ENDCHAR
STARTCHAR 0x0074
ENCODING 116
SWIDTH 400 0
DWIDTH 5 0
BBX 4 9 0 0
BITMAP
40
40
40
F0
40
40
40
40
30
ENDCHAR
STARTCHAR 0x0075
ENCODING 117
SWIDTH 480 0
DWIDTH 6 0
BBX 5 6 0 0
BITMAP
88
88
88
88
98
68
ENDCHAR
STARTCHAR 0x0076
ENCODING 118
SWIDTH 480 0
DWIDTH 6 0
BBX 5 6 0 0
BITMAP
88
88
50
50
20
20
ENDCHAR
STARTCHAR 0x0077
ENCODING 119
SWIDTH 800 0
DWIDTH 10 0
BBX 9 6 0 0
BITMAP
8880
8880
5500
5500
2200
2200
ENDCHAR
STARTCHAR 0x0078
ENCODING 120
SWIDTH 480 0
DWIDTH 6 0
BBX 5 6 0 0
BITMAP
88
50
20
20
50
88
ENDCHAR
STARTCHAR 0x0079
ENCODING 121
SWIDTH 480 0
DWIDTH 6 0
BBX 5 9 0 -3
BITMAP
88
88
88
88
88
78
08
88
70
ENDCHAR
STARTCHAR 0x007A
ENCODING 122
SWIDTH 480 0
DWIDTH 6 0
BBX 5 6 0 0
BITMAP
F8
10
20
40
80
F8
ENDCHAR
STARTCHAR 0x007B
ENCODING 123
SWIDTH 640 0
DWIDTH 8 0
BBX 5 11 1 -1
BITMAP
18
20
20
20
20
C0
20
20
20
20
18
ENDCHAR
STARTCHAR 0x007C
ENCODING 124
SWIDTH 480 0
DWIDTH 6 0
BBX 1 11 2 -1
BITMAP
80
80
80
80
80
80
80
80
80
80
80
ENDCHAR
STARTCHAR 0x007D
ENCODING 125
SWIDTH 640 0
DWIDTH 8 0
BBX 5 11 1 -1
BITMAP
C0
20
20
20
20
18
20
20
20
20
C0
ENDCHAR
STARTCHAR 0x007E
ENCODING 126
SWIDTH 560 0
DWIDTH 7 0
BBX 6 2 0 7
BITMAP
64
98
ENDCHAR
STARTCHAR 0x007F
ENCODING 127
SWIDTH 0 0
DWIDTH 0 0
BBX 0 0 0 0
BITMAP
ENDCHAR
STARTCHAR 0x00A0
ENCODING 160
SWIDTH 0 0
DWIDTH 0 0
BBX 0 0 0 0
BITMAP
ENDCHAR
STARTCHAR 0x00A1
ENCODING 161
SWIDTH 320 0
DWIDTH 4 0
BBX 1 9 1 0
BITMAP
80
00
80
80
80
80
80
80
80
ENDCHAR
STARTCHAR 0x00A2
ENCODING 162
SWIDTH 480 0
DWIDTH 6 0
BBX 5 9 0 0
BITMAP
20
20
70
A8
A0
A0
A0
78
20
ENDCHAR
STARTCHAR 0x00A3
ENCODING 163
SWIDTH 560 0
DWIDTH 7 0
BBX 6 9 0 0
BITMAP
38
44
40
40
F8
40
40
60
9C
ENDCHAR
STARTCHAR 0x00A4
ENCODING 164
SWIDTH 560 0
DWIDTH 7 0
BBX 6 6 0 1
BITMAP
84
78
48
48
78
84
ENDCHAR
STARTCHAR 0x00A5
ENCODING 165
SWIDTH 640 0
DWIDTH 8 0
BBX 7 9 0 0
BITMAP
82
44
28
10
FE
10
FE
10
10
ENDCHAR
STARTCHAR 0x00A6
ENCODING 166
SWIDTH 480 0
DWIDTH 6 0
BBX 1 11 2 -1
BITMAP
80
80
80
80
80
00
80
80
80
80
80
ENDCHAR
STARTCHAR 0x00A7
ENCODING 167
SWIDTH 480 0
DWIDTH 6 0
BBX 5 11 0 -1
BITMAP
70
88
80
60
90
88
48
30
08
88
70
ENDCHAR
STARTCHAR 0x00A8
ENCODING 168
SWIDTH 560 0
DWIDTH 7 0
BBX 6 1 0 8
BITMAP
CC
ENDCHAR
STARTCHAR 0x00A9
ENCODING 169
SWIDTH 800 0
DWIDTH 10 0
BBX 9 9 0 0
BITMAP
3E00
4100
9C80
A080
A080
A080
9C80
4100
3E00
ENDCHAR
STARTCHAR 0x00AA
ENCODING 170
SWIDTH 480 0
DWIDTH 6 0
BBX 5 9 0 0
BITMAP
70
08
78
88
88
78
00
00
F8
ENDCHAR
STARTCHAR 0x00AB
ENCODING 171
SWIDTH 720 0
DWIDTH 9 0
BBX 8 9 0 0
BITMAP
09
12
24
48
90
48
24
12
09
ENDCHAR
STARTCHAR 0x00AC
ENCODING 172
SWIDTH 640 0
DWIDTH 8 0
BBX 7 3 0 2
BITMAP
FE
02
02
ENDCHAR
STARTCHAR 0x00AD
ENCODING 173
SWIDTH 560 0
DWIDTH 7 0
BBX 6 1 0 4
BITMAP
FC
ENDCHAR
STARTCHAR 0x00AE
ENCODING 174
SWIDTH 800 0
DWIDTH 10 0
BBX 9 9 0 0
BITMAP
3E00
4100
BE80
A280
BC80
A280
A280
4100
3E00
ENDCHAR
STARTCHAR 0x00AF
ENCODING 175
SWIDTH 560 0
DWIDTH 7 0
BBX 6 1 0 8
BITMAP
FC
ENDCHAR
STARTCHAR 0x00B0
ENCODING 176
SWIDTH 400 0
DWIDTH 5 0
BBX 4 4 0 6
BITMAP
60
90
90
60
ENDCHAR
STARTCHAR 0x00B1
ENCODING 177
SWIDTH 640 0
DWIDTH 8 0
BBX 7 9 0 0
BITMAP
10
10
10
FE
10
10
10
00
FE
ENDCHAR
STARTCHAR 0x00B2
ENCODING 178
SWIDTH 400 0
DWIDTH 5 0
BBX 4 6 0 4
BITMAP
60
90
10
20
40
F0
ENDCHAR
STARTCHAR 0x00B3
ENCODING 179
SWIDTH 400 0
DWIDTH 5 0
BBX 4 6 0 4
BITMAP
F0
20
60
10
90
60
ENDCHAR
STARTCHAR 0x00B4
ENCODING 180
SWIDTH 480 0
DWIDTH 6 0
BBX 3 3 1 8
BITMAP
20
40
80
ENDCHAR
STARTCHAR 0x00B5
ENCODING 181
SWIDTH 480 0
DWIDTH 6 0
BBX 5 9 0 -3
BITMAP
88
88
88
88
98
E8
80
80
80
ENDCHAR
STARTCHAR 0x00B6
ENCODING 182
SWIDTH 560 0
DWIDTH 7 0
BBX 6 9 0 0
BITMAP
3C
74
F4
F4
74
34
14
14
14
ENDCHAR
STARTCHAR 0x00B7
ENCODING 183
SWIDTH 480 0
DWIDTH 6 0
BBX 1 1 2 4
BITMAP
80
ENDCHAR
STARTCHAR 0x00B8
ENCODING 184
SWIDTH 480 0
DWIDTH 6 0
BBX 3 3 1 -2
BITMAP
20
40
80
ENDCHAR
STARTCHAR 0x00B9
ENCODING 185
SWIDTH 400 0
DWIDTH 5 0
BBX 3 6 0 4
BITMAP
20
60
A0
20
20
20
ENDCHAR
STARTCHAR 0x00BA
ENCODING 186
SWIDTH 400 0
DWIDTH 5 0
BBX 5 8 0 2
BITMAP
70
88
88
88
70
00
00
F8
ENDCHAR
STARTCHAR 0x00BB
ENCODING 187
SWIDTH 720 0
DWIDTH 9 0
BBX 8 9 0 0
BITMAP
90
48
24
12
09
12
24
48
90
ENDCHAR
STARTCHAR 0x00BC
ENCODING 188
SWIDTH 640 0
DWIDTH 8 0
BBX 7 9 0 0
BITMAP
40
C2
44
48
10
2C
54
9E
04
ENDCHAR
STARTCHAR 0x00BD
ENCODING 189
SWIDTH 640 0
DWIDTH 8 0
BBX 7 9 0 0
BITMAP
40
C2
44
48
10
2C
42
84
0E
ENDCHAR
STARTCHAR 0x00BE
ENCODING 190
SWIDTH 640 0
DWIDTH 8 0
BBX 7 9 0 0
BITMAP
E0
42
24
C8
10
2C
54
9E
04
ENDCHAR
STARTCHAR 0x00BF
ENCODING 191
SWIDTH 480 0
DWIDTH 6 0
BBX 5 9 0 0
BITMAP
20
00
20
20
40
80
88
88
70
ENDCHAR
STARTCHAR 0x00C0
ENCODING 192
SWIDTH 640 0
DWIDTH 8 0
BBX 7 11 0 0
BITMAP
10
08
00
10
10
28
28
44
7C
82
82
ENDCHAR
STARTCHAR 0x00C1
ENCODING 193
SWIDTH 640 0
DWIDTH 8 0
BBX 7 11 0 0
BITMAP
08
10
00
10
10
28
28
44
7C
82
82
ENDCHAR
STARTCHAR 0x00C2
ENCODING 194
SWIDTH 640 0
DWIDTH 8 0
BBX 7 11 0 0
BITMAP
18
24
00
10
10
28
28
44
7C
82
82
ENDCHAR
STARTCHAR 0x00C3
ENCODING 195
SWIDTH 640 0
DWIDTH 8 0
BBX 7 11 0 0
BITMAP
32
4C
00
10
10
28
28
44
7C
82
82
ENDCHAR
STARTCHAR 0x00C4
ENCODING 196
SWIDTH 640 0
DWIDTH 8 0
BBX 7 11 0 0
BITMAP
24
24
00
10
10
28
28
44
7C
82
82
ENDCHAR
STARTCHAR 0x00C5
ENCODING 197
SWIDTH 640 0
DWIDTH 8 0
BBX 7 11 0 0
BITMAP
18
24
24
18
10
28
28
44
7C
82
82
ENDCHAR
STARTCHAR 0x00C6
ENCODING 198
SWIDTH 720 0
DWIDTH 9 0
BBX 8 9 0 0
BITMAP
3F
28
28
48
4F
78
88
88
8F
ENDCHAR
STARTCHAR 0x00C7
ENCODING 199
SWIDTH 560 0
DWIDTH 7 0
BBX 6 11 0 -2
BITMAP
38
44
80
80
80
80
80
44
38
10
20
ENDCHAR
STARTCHAR 0x00C8
ENCODING 200
SWIDTH 560 0
DWIDTH 7 0
BBX 6 11 0 0
BITMAP
20
10
00
FC
80
80
F8
80
80
80
FC
ENDCHAR
STARTCHAR 0x00C9
ENCODING 201
SWIDTH 560 0
DWIDTH 7 0
BBX 6 11 0 0
BITMAP
10
20
00
FC
80
80
F8
80
80
80
FC
ENDCHAR
STARTCHAR 0x00CA
ENCODING 202
SWIDTH 560 0
DWIDTH 7 0
BBX 6 11 0 0
BITMAP
30
48
00
FC
80
80
F8
80
80
80
FC
ENDCHAR
STARTCHAR 0x00CB
ENCODING 203
SWIDTH 560 0
DWIDTH 7 0
BBX 6 11 0 0
BITMAP
48
48
00
FC
80
80
F8
80
80
80
FC
ENDCHAR
STARTCHAR 0x00CC
ENCODING 204
SWIDTH 320 0
DWIDTH 4 0
BBX 2 11 1 0
BITMAP
80
40
00
80
80
80
80
80
80
80
80
ENDCHAR
STARTCHAR 0x00CD
ENCODING 205
SWIDTH 320 0
DWIDTH 4 0
BBX 2 11 1 0
BITMAP
40
80
00
80
80
80
80
80
80
80
80
ENDCHAR
STARTCHAR 0x00CE
ENCODING 206
SWIDTH 320 0
DWIDTH 4 0
BBX 4 11 0 0
BITMAP
60
90
00
40
40
40
40
40
40
40
40
ENDCHAR
STARTCHAR 0x00CF
ENCODING 207
SWIDTH 320 0
DWIDTH 4 0
BBX 4 11 0 0
BITMAP
90
90
00
40
40
40
40
40
40
40
40
ENDCHAR
STARTCHAR 0x00D0
ENCODING 208
SWIDTH 720 0
DWIDTH 9 0
BBX 8 9 0 0
BITMAP
7C
42
41
41
F9
41
41
42
7C
ENDCHAR
STARTCHAR 0x00D1
ENCODING 209
SWIDTH 640 0
DWIDTH 8 0
BBX 7 11 0 0
BITMAP
32
4C
00
82
C2
A2
92
8A
86
82
82
ENDCHAR
STARTCHAR 0x00D2
ENCODING 210
SWIDTH 640 0
DWIDTH 8 0
BBX 7 11 0 0
BITMAP
10
08
00
38
44
82
82
82
82
44
38
ENDCHAR
STARTCHAR 0x00D3
ENCODING 211
SWIDTH 640 0
DWIDTH 8 0
BBX 7 11 0 0
BITMAP
08
10
00
38
44
82
82
82
82
44
38
ENDCHAR
STARTCHAR 0x00D4
ENCODING 212
SWIDTH 640 0
DWIDTH 8 0
BBX 7 11 0 0
BITMAP
18
24
00
38
44
82
82
82
82
44
38
ENDCHAR
STARTCHAR 0x00D5
ENCODING 213
SWIDTH 640 0
DWIDTH 8 0
BBX 7 11 0 0
BITMAP
32
4C
00
38
44
82
82
82
82
44
38
ENDCHAR
STARTCHAR 0x00D6
ENCODING 214
SWIDTH 640 0
DWIDTH 8 0
BBX 7 11 0 0
BITMAP
24
24
00
38
44
82
82
82
82
44
38
ENDCHAR
STARTCHAR 0x00D7
ENCODING 215
SWIDTH 640 0
DWIDTH 8 0
BBX 7 7 0 1
BITMAP
82
44
28
10
28
44
82
ENDCHAR
STARTCHAR 0x00D8
ENCODING 216
SWIDTH 720 0
DWIDTH 9 0
BBX 9 11 -1 -1
BITMAP
0080
1D00
2200
4300
4500
4900
5100
6100
2200
5C00
8000
ENDCHAR
STARTCHAR 0x00D9
ENCODING 217
SWIDTH 640 0
DWIDTH 8 0
BBX 7 11 0 0
BITMAP
10
08
00
82
82
82
82
82
82
44
38
ENDCHAR
STARTCHAR 0x00DA
ENCODING 218
SWIDTH 640 0
DWIDTH 8 0
BBX 7 11 0 0
BITMAP
08
10
00
82
82
82
82
82
82
44
38
ENDCHAR
STARTCHAR 0x00DB
ENCODING 219
SWIDTH 640 0
DWIDTH 8 0
BBX 7 11 0 0
BITMAP
18
24
00
82
82
82
82
82
82
44
38
ENDCHAR
STARTCHAR 0x00DC
ENCODING 220
SWIDTH 640 0
DWIDTH 8 0
BBX 7 11 0 0
BITMAP
24
24
00
82
82
82
82
82
82
44
38
ENDCHAR
STARTCHAR 0x00DD
ENCODING 221
SWIDTH 640 0
DWIDTH 8 0
BBX 7 11 0 0
BITMAP
08
10
00
82
82
44
28
10
10
10
10
ENDCHAR
STARTCHAR 0x00DE
ENCODING 222
SWIDTH 560 0
DWIDTH 7 0
BBX 6 10 0 0
BITMAP
80
80
F8
84
84
84
F8
80
80
80
ENDCHAR
STARTCHAR 0x00DF
ENCODING 223
SWIDTH 480 0
DWIDTH 6 0
BBX 5 11 0 -3
BITMAP
70
88
88
F0
88
88
88
F0
80
80
80
ENDCHAR
STARTCHAR 0x00E0
ENCODING 224
SWIDTH 480 0
DWIDTH 6 0
BBX 5 11 0 0
BITMAP
20
10
00
00
00
70
08
78
88
88
78
ENDCHAR
STARTCHAR 0x00E1
ENCODING 225
SWIDTH 480 0
DWIDTH 6 0
BBX 5 11 0 0
BITMAP
10
20
00
00
00
70
08
78
88
88
78
ENDCHAR
STARTCHAR 0x00E2
ENCODING 226
SWIDTH 480 0
DWIDTH 6 0
BBX 5 11 0 0
BITMAP
30
48
00
00
00
70
08
78
88
88
78
ENDCHAR
STARTCHAR 0x00E3
ENCODING 227
SWIDTH 480 0
DWIDTH 6 0
BBX 6 11 0 0
BITMAP
64
98
00
00
00
70
08
78
88
88
78
ENDCHAR
STARTCHAR 0x00E4
ENCODING 228
SWIDTH 480 0
DWIDTH 6 0
BBX 5 11 0 0
BITMAP
48
48
00
00
00
70
08
78
88
88
78
ENDCHAR
STARTCHAR 0x00E5
ENCODING 229
SWIDTH 480 0
DWIDTH 6 0
BBX 5 11 0 0
BITMAP
30
48
48
30
00
70
08
78
88
88
78
ENDCHAR
STARTCHAR 0x00E6
ENCODING 230
SWIDTH 800 0
DWIDTH 10 0
BBX 9 6 0 0
BITMAP
7F00
0880
7F80
8800
8880
7700
ENDCHAR
STARTCHAR 0x00E7
ENCODING 231
SWIDTH 480 0
DWIDTH 6 0
BBX 5 8 0 -2
BITMAP
70
88
80
80
88
70
20
40
ENDCHAR
STARTCHAR 0x00E8
ENCODING 232
SWIDTH 480 0
DWIDTH 6 0
BBX 5 11 0 0
BITMAP
20
10
00
00
00
70
88
F8
80
88
70
ENDCHAR
STARTCHAR 0x00E9
ENCODING 233
SWIDTH 480 0
DWIDTH 6 0
BBX 5 11 0 0
BITMAP
10
20
00
00
00
70
88
F8
80
88
70
ENDCHAR
STARTCHAR 0x00EA
ENCODING 234
SWIDTH 480 0
DWIDTH 6 0
BBX 5 11 0 0
BITMAP
30
48
00
00
00
70
88
F8
80
88
70
ENDCHAR
STARTCHAR 0x00EB
ENCODING 235
SWIDTH 480 0
DWIDTH 6 0
BBX 5 11 0 0
BITMAP
48
48
00
00
00
70
88
F8
80
88
70
ENDCHAR
STARTCHAR 0x00EC
ENCODING 236
SWIDTH 320 0
DWIDTH 4 0
BBX 2 11 1 0
BITMAP
80
40
00
00
00
80
80
80
80
80
80
ENDCHAR
STARTCHAR 0x00ED
ENCODING 237
SWIDTH 320 0
DWIDTH 4 0
BBX 2 11 1 0
BITMAP
40
80
00
00
00
80
80
80
80
80
80
ENDCHAR
STARTCHAR 0x00EE
ENCODING 238
SWIDTH 320 0
DWIDTH 4 0
BBX 4 11 0 0
BITMAP
60
90
00
00
00
40
40
40
40
40
40
ENDCHAR
STARTCHAR 0x00EF
ENCODING 239
SWIDTH 320 0
DWIDTH 4 0
BBX 4 11 0 0
BITMAP
90
90
00
00
00
40
40
40
40
40
40
ENDCHAR
STARTCHAR 0x00F0
ENCODING 240
SWIDTH 480 0
DWIDTH 6 0
BBX 5 10 0 0
BITMAP
C0
38
E0
10
70
88
88
88
88
70
ENDCHAR
STARTCHAR 0x00F1
ENCODING 241
SWIDTH 480 0
DWIDTH 6 0
BBX 6 11 0 0
BITMAP
64
98
00
00
00
B0
C8
88
88
88
88
ENDCHAR
STARTCHAR 0x00F2
ENCODING 242
SWIDTH 480 0
DWIDTH 6 0
BBX 5 11 0 0
BITMAP
20
10
00
00
00
70
88
88
88
88
70
ENDCHAR
STARTCHAR 0x00F3
ENCODING 243
SWIDTH 480 0
DWIDTH 6 0
BBX 5 11 0 0
BITMAP
10
20
00
00
00
70
88
88
88
88
70
ENDCHAR
STARTCHAR 0x00F4
ENCODING 244
SWIDTH 480 0
DWIDTH 6 0
BBX 5 11 0 0
BITMAP
30
48
00
00
00
70
88
88
88
88
70
ENDCHAR
STARTCHAR 0x00F5
ENCODING 245
SWIDTH 480 0
DWIDTH 6 0
BBX 6 11 0 0
BITMAP
64
98
00
00
00
70
88
88
88
88
70
ENDCHAR
STARTCHAR 0x00F6
ENCODING 246
SWIDTH 480 0
DWIDTH 6 0
BBX 5 11 0 0
BITMAP
48
48
00
00
00
70
88
88
88
88
70
ENDCHAR
STARTCHAR 0x00F7
ENCODING 247
SWIDTH 640 0
DWIDTH 8 0
BBX 7 9 0 0
BITMAP
10
10
00
00
FE
00
00
10
10
ENDCHAR
STARTCHAR 0x00F8
ENCODING 248
SWIDTH 480 0
DWIDTH 6 0
BBX 5 8 0 -1
BITMAP
08
70
98
A8
A8
C8
70
80
ENDCHAR
STARTCHAR 0x00F9
ENCODING 249
SWIDTH 480 0
DWIDTH 6 0
BBX 5 11 0 0
BITMAP
20
10
00
00
00
88
88
88
88
98
68
ENDCHAR
STARTCHAR 0x00FA
ENCODING 250
SWIDTH 480 0
DWIDTH 6 0
BBX 5 11 0 0
BITMAP
10
20
00
00
00
88
88
88
88
98
68
ENDCHAR
STARTCHAR 0x00FB
ENCODING 251
SWIDTH 480 0
DWIDTH 6 0
BBX 5 11 0 0
BITMAP
30
48
00
00
00
88
88
88
88
98
68
ENDCHAR
STARTCHAR 0x00FC
ENCODING 252
SWIDTH 480 0
DWIDTH 6 0
BBX 5 11 0 0
BITMAP
48
48
00
00
00
88
88
88
88
98
68
ENDCHAR
STARTCHAR 0x00FD
ENCODING 253
SWIDTH 480 0
DWIDTH 6 0
BBX 5 14 0 -3
BITMAP
10
20
00
00
00
88
88
88
88
88
78
08
88
70
ENDCHAR
STARTCHAR 0x00FE
ENCODING 254
SWIDTH 480 0
DWIDTH 6 0
BBX 5 11 0 -3
BITMAP
80
80
F0
88
88
88
88
F0
80
80
80
ENDCHAR
STARTCHAR 0x00FF
ENCODING 255
SWIDTH 480 0
DWIDTH 6 0
BBX 5 14 0 -3
BITMAP
48
48
00
00
00
88
88
88
88
88
78
08
88
70
ENDCHAR
ENDFONT
